<svg xmlns="http://www.w3.org/2000/svg" fill="none" viewBox="0 0 24 24" stroke-width="1.5" stroke="currentColor" class="w-6 h-6">
  <path stroke-linecap="round" stroke-linejoin="round" d="M20.25 14.15v4.075c0 1.313-.964 2.44-2.213 2.69-1.248.25-2.522.25-3.77 0-1.249-.25-2.213-1.377-2.213-2.69V14.15m0 0v-2.075a2.25 2.25 0 00-2.25-2.25H9.75a2.25 2.25 0 00-2.25 2.25v2.075m0 0v4.075c0 1.313.964 2.44 2.213 2.69 1.248.25 2.522.25 3.77 0 1.249-.25 2.213-1.377 2.213-2.69V14.15m-6.03-4.45a2.25 2.25 0 012.25-2.25h.01a2.25 2.25 0 012.25 2.25v.01M11.25 6.75a2.25 2.25 0 00-2.25 2.25v.01M14.25 6.75a2.25 2.25 0 012.25 2.25v.01M5.25 12h.01" />
</svg>
